<svg width="41" height="40" xmlns="http://www.w3.org/2000/svg"><path d="M22.87 3a2.9 2.9 0 011.834.655A6.112 6.112 0 0130.297 0c3.374 0 6.11 2.742 6.11 6.125 0 .135-.005.27-.013.402C38.424 6.768 40 8.567 40 10.75c0 2.263-1.695 4.113-3.833 4.242V15H20.833v-.043C18.668 14.653 17 12.717 17 10.375c0-1.982 1.196-3.674 2.877-4.332.04-1.688 1.366-3.042 2.993-3.042zm-4.482 34.014c.703.204 1.595.34 2.368.39.23.016 1.262.025 1.498.025H40V40H22.224a45.59 45.59 0 01-1.773-.038c-.948-.072-2.014-.244-2.881-.502a11.836 11.836 0 01-1.607-.673c-3.044-1.642-5.124-4.858-5.124-8.555 0-5.363 4.364-9.725 9.726-9.725 5.33 0 9.67 4.309 9.724 9.625h-2.58c-.055-3.894-3.238-7.047-7.144-7.047-3.941 0-7.145 3.208-7.145 7.147 0 2.871 1.705 5.346 4.153 6.48.138.063.684.264.815.302z"/><path d="M20.904 33.346c.18.015 1.163.022 1.35.022H40v2.482H22.18v-.004a42.224 42.224 0 01-1.424-.026c-.556-.04-1.241-.133-1.752-.267-.149-.039-.672-.21-.95-.372a5.544 5.544 0 01-3.047-4.95 5.557 5.557 0 015.558-5.556c3.036 0 5.5 2.435 5.552 5.457h-2.48a3.076 3.076 0 00-3.072-2.978 3.076 3.076 0 00-3.076 3.078c0 1.168.653 2.182 1.612 2.7.137.076.44.19.764.277a8.82 8.82 0 001.039.137zM6.65 39.99h2.6V20.492H2.853v2.599H6.65v16.9z"/><path d="M0 26.889v-2.5h5.35V39.99H2.853v-13.1H0zM12 7.414v1.1A9 9 0 003.5 17.5h1A8 8 0 0112 9.515v1.07c0 .892 1.077 1.338 1.707.708l1.586-1.586a1 1 0 000-1.414l-1.586-1.586c-.63-.63-1.707-.184-1.707.707zm26.855 12.174A5.5 5.5 0 0134 22.5v-1.086c0-.89-1.077-1.337-1.707-.707l-1.586 1.586a1 1 0 000 1.414l1.586 1.586c.63.63 1.707.184 1.707-.707V23.5a6.5 6.5 0 006.5-6.5h-1c0 .937-.234 1.817-.645 2.588z"/></svg>