<svg width="40" height="40" xmlns="http://www.w3.org/2000/svg"><path d="M26.801 13.732a1.5 1.5 0 01.467 2.069l-12 19a1.5 1.5 0 11-2.536-1.602l12-19a1.5 1.5 0 012.069-.467zM15.06 18.06a1.5 1.5 0 00-2.12-2.12l-4 4a1.5 1.5 0 000 2.12l4 4a1.5 1.5 0 002.12-2.12L12.122 21l2.94-2.94zm9.88 7a1.5 1.5 0 012.12-2.12l4 4a1.5 1.5 0 010 2.12l-4 4a1.5 1.5 0 01-2.12-2.12L27.878 28l-2.94-2.94z"/><path fill-rule="evenodd" clip-rule="evenodd" d="M0 6v28a6 6 0 006 6h28a6 6 0 006-6V6a6 6 0 00-6-6H6a6 6 0 00-6 6zm1 4h38v24a5 5 0 01-5 5H6a5 5 0 01-5-5V10zm26-4a1 1 0 100-2 1 1 0 000 2zm5-1a1 1 0 11-2 0 1 1 0 012 0zm3 1a1 1 0 100-2 1 1 0 000 2z"/></svg>