<svg width="40" height="40" xmlns="http://www.w3.org/2000/svg"><g clip-path="url(#clip0_211_986)"><path fill-rule="evenodd" clip-rule="evenodd" d="M14 0c5.106 0 9.525 2.944 11.651 7.227L27.44 5.44a1.74 1.74 0 01.026-.024l-1.842-1.842c-.617-.617-.204-1.676.669-1.708l6.178-.229a1 1 0 011.036 1.036l-.229 6.178c-.032.873-1.09 1.286-1.708.669l-1.983-1.984a1.695 1.695 0 01-.025.026l-2.824 2.823c.172.845.263 1.72.263 2.616 0 3.664-1.516 6.975-3.955 9.338l2.858 2.858.707-.707a2 2 0 012.829 0l9.85 9.851a2 2 0 010 2.828l-2.12 2.122a2 2 0 01-2.829 0L24.49 29.44a2 2 0 010-2.829l.707-.707-2.897-2.896A12.947 12.947 0 0114 26c-4.068 0-7.7-1.869-10.084-4.795l-1.355 1.356a1.5 1.5 0 01-2.122-2.122l1.83-1.83A12.949 12.949 0 011 13C1 5.82 6.82 0 14 0zm0 25c6.627 0 12-5.373 12-12 0-.595-.043-1.18-.127-1.752l-3.812 3.813a1.5 1.5 0 01-2.122 0L18 13.12l-6.44 6.44a1.5 1.5 0 01-2.12 0L7.5 17.62l-2.873 2.873A11.978 11.978 0 0014 25zm7-13.121l3.901-3.902A12 12 0 0014 1C7.373 1 2 6.373 2 13c0 1.728.365 3.371 1.023 4.856l3.416-3.417a1.5 1.5 0 012.122 0l1.939 1.94 6.44-6.44a1.5 1.5 0 012.12 0L21 11.88z"/></g><defs><clipPath id="clip0_211_986"><path fill="#fff" d="M0 0h40v40H0z"/></clipPath></defs></svg>