<svg width="40" height="40" xmlns="http://www.w3.org/2000/svg"><path d="M23 0c.138 6.87 3.45 11 9.26 11h.328V7.069c2.135.22 3.749 1.839 4.396 3.931H40c-.828-3.127-3.005-4.856-4.364-5.517 1.359-.814 3.27-2.796 3.727-5.483h-2.74c-.594 2.18-2.357 4.162-4.035 4.35V0h-2.74v7.62C28.15 7.18 26.006 5.043 25.91 0H23z"/><path fill-rule="evenodd" clip-rule="evenodd" d="M11.703 29.504a2.8 2.8 0 012.797-2.797 2.797 2.797 0 11-2.797 2.797zm2.797 1.598a1.604 1.604 0 000-3.205 1.604 1.604 0 000 3.205z"/><path d="M17.409 27.044a.449.449 0 100-.898.449.449 0 000 .898z"/><path fill-rule="evenodd" clip-rule="evenodd" d="M16.529 24H12.47A3.476 3.476 0 009 27.47v4.059a3.476 3.476 0 003.47 3.47h4.059a3.476 3.476 0 003.47-3.47V27.47A3.476 3.476 0 0016.53 24zm2.276 3.47v4.059a2.28 2.28 0 01-2.276 2.276H12.47a2.28 2.28 0 01-2.276-2.276V27.47a2.28 2.28 0 012.276-2.276h4.059a2.28 2.28 0 012.276 2.276z"/><path fill-rule="evenodd" clip-rule="evenodd" d="M38 31.167a2 2 0 002-2v-5.813a2 2 0 00-2-2h-1.334v-3.271c0-3.083 0-3.271-3.333-3.271H21.666V8.271c0-1.798-1.5-3.271-3.333-3.271h-15C1.5 5 0 6.473 0 8.271v9.812c0 1.799 1.5 3.271 3.333 3.271v15.72H1a1 1 0 00-1 1v.635c0 1.29 1.451 1.29 3.255 1.289L36.738 40C38.546 40 40 40 40 38.71v-.637a1 1 0 00-1-1h-2.334v-5.906H38zM9.583 10.724l4.167 2.453-4.167 2.453v-4.906zm25.75 10.63h-10a2 2 0 00-2 2v8.701c0 .886 1.068 1.335 1.7.714l.466-.457a4 4 0 012.802-1.145h7.032v5.906h-8.148a2 2 0 00-.972.252l-.306.17a4 4 0 01-1.945.505h-7.924a4 4 0 01-1.945-.505l-.306-.17a2 2 0 00-.973-.252H4.666v-15.72h13.667c1.833 0 3.333-3.472 3.333-5.27h13.667v5.271z"/></svg>