<svg width="28" height="29" fill="none" xmlns="http://www.w3.org/2000/svg"><g clip-path="url(#clip0_205_591)"><mask id="a" style="mask-type:luminance" maskUnits="userSpaceOnUse" x="-1" y="0" width="29" height="29"><path d="M28 .5H0v28h28V.5z" fill="#fff"/></mask><g mask="url(#a)"><path d="M14 .5a13.998 13.998 0 00-9.9 23.9A13.998 13.998 0 1023.898 4.6 13.998 13.998 0 0014 .5z" fill="url(#paint0_linear_205_591)"/><path d="M6.337 14.352c4.082-1.778 6.803-2.95 8.164-3.517 3.89-1.617 4.696-1.898 5.224-1.907.115-.002.374.027.542.163.14.115.18.27.2.38.017.108.04.356.021.55-.21 2.214-1.122 7.586-1.586 10.066-.195 1.049-.582 1.4-.956 1.435-.814.075-1.43-.538-2.218-1.054-1.232-.807-1.927-1.31-3.124-2.098-1.382-.911-.485-1.412.302-2.23.206-.214 3.789-3.473 3.857-3.768.008-.037.017-.175-.066-.247-.08-.073-.201-.048-.289-.029-.124.028-2.09 1.33-5.906 3.903-.558.384-1.063.571-1.518.561-.499-.01-1.461-.282-2.177-.514-.875-.285-1.572-.436-1.511-.92.03-.252.378-.51 1.041-.774z" fill="#fff"/></g></g><defs><linearGradient id="paint0_linear_205_591" x1="14" y1=".5" x2="14" y2="28.5" gradientUnits="userSpaceOnUse"><stop stop-color="#2AABEE"/><stop offset="1" stop-color="#229ED9"/></linearGradient><clipPath id="clip0_205_591"><path fill="#fff" transform="translate(0 .5)" d="M0 0h28v28H0z"/></clipPath></defs></svg>