<svg width="40" height="40" xmlns="http://www.w3.org/2000/svg"><path d="M1.25 0C.56 0 0 .563 0 1.258V6.29c0 .695.56 1.258 1.25 1.258h5c.69 0 1.25-.563 1.25-1.258V4.403h6.366a15.73 15.73 0 00-9.447 13.278A2.514 2.514 0 002.5 20.13c0 1.39 1.12 2.516 2.5 2.516s2.5-1.126 2.5-2.516c0-1.156-.774-2.13-1.829-2.424.527-6.652 5.524-12.035 11.966-13.107A2.502 2.502 0 0020 6.29a2.502 2.502 0 002.363-1.692c6.442 1.072 11.439 6.455 11.966 13.107a2.515 2.515 0 00-1.829 2.424c0 1.39 1.12 2.516 2.5 2.516s2.5-1.126 2.5-2.516a2.514 2.514 0 00-1.92-2.448 15.729 15.729 0 00-9.446-13.278H32.5V6.29c0 .695.56 1.258 1.25 1.258h5c.69 0 1.25-.563 1.25-1.258V1.258C40 .563 39.44 0 38.75 0h-5c-.69 0-1.25.563-1.25 1.258v1.887H22.421A2.504 2.504 0 0020 1.258a2.504 2.504 0 00-2.421 1.887H7.5V1.258C7.5.563 6.94 0 6.25 0h-5zM20 26.42c.69 0 1.25-.564 1.25-1.259s-.56-1.258-1.25-1.258-1.25.564-1.25 1.258c0 .695.56 1.258 1.25 1.258z"/><path d="M10 25.161c2.5-2.013 6.875-10.064 8.75-13.838v10.279a3.774 3.774 0 00-2.5 3.56c0 2.084 1.679 3.774 3.75 3.774 2.071 0 3.75-1.69 3.75-3.775a3.774 3.774 0 00-2.5-3.56V11.324C23.125 15.097 27.5 23.148 30 25.16c-2.883 2.176-3.991 4.483-4.307 6.073-.152.762-.771 1.476-1.544 1.476h-8.298c-.773 0-1.392-.714-1.544-1.476-.316-1.59-1.424-3.897-4.307-6.073zm5 10.065c-2.071 0-3.75 2.69-3.75 4.774h17.5c0-2.084-1.679-4.774-3.75-4.774H15z"/></svg>