<svg width="40" height="40" xmlns="http://www.w3.org/2000/svg"><path fill-rule="evenodd" clip-rule="evenodd" d="M3 0a3 3 0 00-3 3v6a3 3 0 003 3h6a3 3 0 003-3V3a3 3 0 00-3-3H3zm0 6.706l1.118-1c.294.53.706 1 .706 1C5.588 5.902 7.764 4.118 9.47 4c.191.47.318.77.4.964.097.233.129.309.129.33C8.882 5.412 6.494 6.46 4.47 9 3.942 7.588 3.236 6.902 3 6.706zM3 14a3 3 0 00-3 3v6a3 3 0 003 3h6a3 3 0 003-3v-6a3 3 0 00-3-3H3zm0 6.706l1.118-1c.294.53.706 1 .706 1 .764-.804 2.94-2.588 4.647-2.706.191.469.318.77.4.964.097.233.129.309.129.33-1.118.118-3.506 1.165-5.53 3.706-.529-1.412-1.235-2.098-1.47-2.294zM0 31a3 3 0 013-3h6a3 3 0 013 3v6a3 3 0 01-3 3H3a3 3 0 01-3-3v-6zm4.118 2.706l-1.118 1c.235.196.941.882 1.47 2.294 2.024-2.541 4.412-3.588 5.53-3.706 0-.021-.032-.097-.13-.33-.08-.193-.208-.495-.4-.964-1.705.118-3.882 1.902-4.646 2.706 0 0-.412-.47-.706-1z"/><path d="M40 4.5H16v-1h24v1zm-24 14h24v-1H16v1zm24 14H16v-1h24v1zm-24-24h14v-1H16v1zm14 14H16v-1h14v1zm-14 14h14v-1H16v1z"/></svg>