<svg width="28" height="29" fill="none" xmlns="http://www.w3.org/2000/svg"><g clip-path="url(#clip0_205_585)"><path d="M.117 14.374a13.798 13.798 0 001.86 6.936L0 28.5l7.39-1.93a13.985 13.985 0 006.663 1.69h.006c7.683 0 13.938-6.225 13.94-13.875a13.757 13.757 0 00-4.079-9.816A13.885 13.885 0 0014.058.5C6.374.5.12 6.724.117 14.374z" fill="url(#paint0_linear_205_585)"/><path d="M10.188 8.505c-.261-.564-.536-.575-.784-.585-.203-.009-.436-.008-.668-.008a1.3 1.3 0 00-.929.423c-.319.34-1.219 1.159-1.219 2.825 0 1.666 1.248 3.276 1.422 3.503.175.225 2.41 3.754 5.951 5.111 2.943 1.129 3.542.904 4.18.848.639-.057 2.061-.82 2.351-1.61.29-.79.29-1.469.204-1.61-.087-.141-.32-.226-.668-.395-.349-.17-2.061-.99-2.38-1.102-.32-.113-.552-.17-.784.17-.233.338-.9 1.1-1.103 1.327-.203.226-.406.254-.755.085-.348-.17-1.47-.527-2.801-1.68-1.036-.899-1.735-2.007-1.938-2.346-.203-.339-.022-.522.153-.691.156-.152.348-.396.523-.593.173-.198.231-.34.348-.565.116-.226.058-.424-.03-.593-.087-.17-.764-1.845-1.073-2.514z" fill="#fff"/></g><defs><linearGradient id="paint0_linear_205_585" x1="14" y1="28.5" x2="14" y2=".5" gradientUnits="userSpaceOnUse"><stop stop-color="#1FAF38"/><stop offset="1" stop-color="#60D669"/></linearGradient><clipPath id="clip0_205_585"><path fill="#fff" transform="translate(0 .5)" d="M0 0h28v28H0z"/></clipPath></defs></svg>