<svg width="167" height="43" fill="none" xmlns="http://www.w3.org/2000/svg"><path d="M137.397 20.036H133.7l-4.415 4.465v-4.465h-3.126V32.34h3.126v-5.085l4.49 5.085h3.771l-5.806-6.598 5.657-5.706z" fill="#101828"/><path d="M38.21 23.326h-4.515v-5.458h4.515c2.282 0 3.324 1.092 3.324 2.729s-1.042 2.729-3.324 2.729zm.1-8.385h-7.89v17.365h3.275v-6.053h4.614c3.92 0 6.5-2.01 6.5-5.656 0-3.647-2.58-5.656-6.5-5.656zM52.2 29.726c-1.836 0-3.547-1.315-3.547-3.572 0-2.258 1.711-3.572 3.547-3.572s3.548 1.314 3.548 3.572c0 2.257-1.712 3.572-3.548 3.572zm0-10.072c-3.374 0-6.723 2.183-6.723 6.5s3.35 6.5 6.723 6.5c3.374 0 6.723-2.184 6.723-6.5 0-4.317-3.349-6.5-6.723-6.5zm14.703 10.072c-1.885 0-3.274-1.364-3.274-3.572 0-2.183 1.438-3.572 3.274-3.572 1.116 0 2.084.52 2.853 1.686l2.68-1.538c-.894-1.91-2.829-3.076-5.508-3.076-3.498 0-6.475 2.58-6.475 6.5s2.828 6.5 6.475 6.5c2.63 0 4.39-1.191 5.632-3.3l-2.58-1.414c-.745 1.042-1.539 1.786-3.077 1.786zm33.282-2.753c-.149 1.885-.522 2.307-1.167 2.307-.44 0-.648-.049-.95-.128l.017 3.184s.388.119 1.107.119c2.655 0 3.647-1.712 3.895-5.359l.298-4.291h3.522v9.476h3.126v-12.28h-9.328l-.52 6.972zm-12.29-2.456c.447-1.39 1.687-2.481 3.325-2.481 1.736 0 2.902.942 3.2 2.48h-6.525zm3.424-4.863c-3.573 0-6.475 2.605-6.475 6.5s2.903 6.5 6.326 6.5c2.704 0 4.416-1.018 5.656-3.126l-2.481-1.24c-.769.967-1.463 1.686-3.126 1.686-1.835 0-3.175-1.19-3.373-3.076h9.476v-1.091c0-3.597-2.48-6.153-6.004-6.153zm23.516 4.863c.447-1.39 1.687-2.481 3.324-2.481 1.736 0 2.902.942 3.2 2.48h-6.524zm3.423-4.863c-3.572 0-6.474 2.605-6.474 6.5s2.902 6.5 6.325 6.5c2.704 0 4.416-1.018 5.656-3.126l-2.48-1.24c-.769.967-1.464 1.686-3.126 1.686-1.836 0-3.175-1.19-3.374-3.076h9.477v-1.091c0-3.597-2.481-6.153-6.004-6.153zM73.532 22.73h3.671v9.576h3.126V22.73H84v-2.728H73.53v2.728zm70.222 6.996c-1.836 0-3.548-1.315-3.548-3.572 0-2.258 1.712-3.572 3.548-3.572s3.547 1.314 3.547 3.572c0 2.257-1.711 3.572-3.547 3.572zm0-10.072c-3.374 0-6.723 2.183-6.723 6.5s3.349 6.5 6.723 6.5c3.374 0 6.723-2.184 6.723-6.5 0-4.317-3.349-6.5-6.723-6.5zm19.161.345l-3.393 8.617L156.13 20h-4.086v12.282h2.971v-7.775l3.294 7.775h2.427l3.293-7.775v7.775H167V20h-4.085z" fill="#101828"/><path d="M2.097 42.297c.026.01.051.022.077.031a.57.57 0 00.084.023 3.2 3.2 0 00.941.148h16.603L8.912 31.58l-.005.005c-2.014 2.002-3.345 3.324-4.325 4.302-.675.671-1.348 1.346-2.017 2.024l-1.16 1.156-.001.002a2.082 2.082 0 00-.547 1.41c0 .836.513 1.518 1.24 1.817z" fill="#FF4F12"/><path d="M.857 40.486c0-.533.208-1.051.547-1.41l.002-.002 1.159-1.156c.551-.56 1.146-1.156 2.017-2.024.98-.978 2.311-2.3 4.325-4.301l.006-.006 1.962-1.95.04-.04c3.259-3.24 7.9-7.858 14.704-14.638L10.668 0 2.203 8.475C-.327 11.005.016 12.66.016 16.059v23.25a3.19 3.19 0 002.08 2.993c-.727-.298-1.239-.98-1.239-1.816" fill="#70F"/></svg>