<svg width="114" height="69" fill="none" xmlns="http://www.w3.org/2000/svg"><path d="M33.993 2.409c.345.253.616.596.789.989.197.418.308.887.308 1.356V31.57c.012.406-.074.824-.271 1.18a1.46 1.46 0 01-.814.633 4.646 4.646 0 01-.838.152l-.962.089v1.319h9.383v-1.319a8.171 8.171 0 01-.95-.14 4.868 4.868 0 01-.85-.304 1.562 1.562 0 01-.814-.684 2.218 2.218 0 01-.247-1.154V.304L38.457 0l-7.238.444v1.28c.505.051 1.01.127 1.504.241.431.076.863.216 1.27.444zm-9.026 6.959c.087-.076.16-.165.235-.253.48-.546.74-1.256.727-1.99a2.536 2.536 0 00-.703-1.801 2.335 2.335 0 00-1.825-.774c-.665 0-1.306.305-1.738.837-.48.52-.74 1.205-.727 1.927 0 .698.258 1.357.727 1.851.863.99 2.343 1.09 3.304.203zm22.058 9.219c1.122 2.713 2.195 5.363 3.243 7.95 1.035 2.586 2.182 5.45 3.415 8.595H55.2c.246-.773.517-1.585.813-2.434.296-.837.568-1.572.826-2.168a454.167 454.167 0 012.553-6.137 1628.56 1628.56 0 012.38-5.603 3.877 3.877 0 011.356-1.737 4.888 4.888 0 011.664-.66l-.012-1.23h-7.361v1.281c.185.026.42.076.703.14.296.076.592.177.875.304a3.2 3.2 0 01.765.47.75.75 0 01.32.608c0 .33-.062.646-.172.95-.111.317-.247.647-.37 1.015a198.31 198.31 0 01-2.294 5.73 246.439 246.439 0 00-1.75 4.286c-.605-1.496-1.406-3.462-2.368-5.921a715.434 715.434 0 01-2.256-5.718c-.062-.216-.136-.406-.197-.57a1.346 1.346 0 01-.099-.318c0-.266.296-.481.875-.634a6.366 6.366 0 011.468-.253v-1.407h-8.915v1.318c.617.102 1.22.33 1.751.66.58.355 1.023.862 1.27 1.483zm22.65 13.755a7.99 7.99 0 002.885 2.282 9.2 9.2 0 004.069.837 7.989 7.989 0 004.66-1.408 10.097 10.097 0 003.243-3.778l-1.369-.862c-.776 1.445-1.59 2.447-2.428 3.018-.9.57-1.936.862-2.997.836a6.01 6.01 0 01-2.922-.672 5.384 5.384 0 01-1.985-1.838 8.738 8.738 0 01-1.147-2.79 15.504 15.504 0 01-.345-3.537h12.737v-1.318a11.571 11.571 0 00-.444-3.31 7.841 7.841 0 00-1.332-2.649 6.483 6.483 0 00-2.44-1.864 8.86 8.86 0 00-3.614-.684 7.694 7.694 0 00-3.698.875 8.57 8.57 0 00-2.762 2.294 10.744 10.744 0 00-1.751 3.335 12.296 12.296 0 00-.592 3.79 14.598 14.598 0 00.555 4.07 9.68 9.68 0 001.677 3.373zm3.107-14.466c.801-1.116 2.059-1.763 3.403-1.75a3.34 3.34 0 012.01.583c.517.393.949.9 1.233 1.497.308.671.505 1.394.591 2.142.124.799.185 1.598.185 2.409h-8.902c.087-2.092.58-3.715 1.48-4.881zm17.52-.684c.345.24.617.583.79.963.184.38.283.8.283 1.218v12.209c.012.406-.074.811-.259 1.166a1.42 1.42 0 01-.814.634 3.67 3.67 0 01-.826.165l-.924.089v1.318h10.147v-1.318c-.37-.026-.826-.076-1.332-.14a5.367 5.367 0 01-1.258-.304 1.59 1.59 0 01-.825-.66 2.31 2.31 0 01-.26-1.14V19.867a6.406 6.406 0 012.084-2.168 4.273 4.273 0 012.146-.76l-.124.722a4.4 4.4 0 00-.074.799c.013.494.222.963.58 1.28.456.419 1.06.622 1.664.584a1.64 1.64 0 001.505-.8 3.444 3.444 0 00.493-1.8 3.162 3.162 0 00-.765-2.218 2.629 2.629 0 00-1.997-.824 5.477 5.477 0 00-2.713.85 8.597 8.597 0 00-2.688 2.471h-.098v-2.789l-.271-.279-6.4.444v1.331a7.7 7.7 0 011.085.152c.284.038.58.165.851.33zm-69.452.113c.333.229.604.533.79.888.184.355.283.76.283 1.179v12.21c.012.405-.074.81-.26 1.166a1.42 1.42 0 01-.813.634 3.67 3.67 0 01-.826.164l-.925.09v1.318h9.285l.012-1.319a5.501 5.501 0 01-.913-.152 6.59 6.59 0 01-.838-.292 1.481 1.481 0 01-.826-.684 2.247 2.247 0 01-.259-1.167V15.2l-.271-.278-6.794.444v1.33a7.67 7.67 0 011.295.216 3.16 3.16 0 011.06.393zM7.447 33.94a4.676 4.676 0 01-2.392-.609 6.729 6.729 0 01-1.825-1.483 8.663 8.663 0 01-1.233-1.89 8.079 8.079 0 01-.665-1.825H0l.197 6.897h1.468l.394-1.306c.617.47 1.295.85 2.022 1.142a7.638 7.638 0 003.095.62c2.12 0 3.847-.582 5.178-1.736a5.68 5.68 0 001.998-4.501 5.447 5.447 0 00-.432-2.307 5.074 5.074 0 00-1.233-1.661 7.549 7.549 0 00-1.886-1.243h.024c-.789-.38-1.602-.71-2.428-.989a49.99 49.99 0 01-2.195-.786 7.413 7.413 0 01-1.48-.748 2.786 2.786 0 01-.912-1.027 3.513 3.513 0 01-.308-1.508 2.61 2.61 0 01.887-2.004 3.633 3.633 0 012.516-.836 4.511 4.511 0 013.304 1.343 6.381 6.381 0 011.75 3.474h1.345l-.296-6.364h-1.406l-.444 1.04a8.03 8.03 0 00-1.923-.723 10.116 10.116 0 00-2.318-.305c-1.96 0-3.539.558-4.71 1.687a5.471 5.471 0 00-1.75 4.107c-.025.837.16 1.661.542 2.41a5.383 5.383 0 001.405 1.724 8.3 8.3 0 001.924 1.153c.666.292 1.344.558 2.034.774a33.4 33.4 0 012.084.722 7.574 7.574 0 011.578.837c.395.28.715.66.95 1.09.221.444.332.939.32 1.446a3.193 3.193 0 01-1.011 2.535c-.629.558-1.59.85-2.836.85zm100.536 28.513a12.867 12.867 0 01-1.886 2.916 2.276 2.276 0 01-1.122.57c-.506.14-1.011.229-1.529.292-.592.064-1.184.089-1.776.076h-1.689a20.362 20.362 0 01-2.49-.114 2.94 2.94 0 01-1.394-.494 1.844 1.844 0 01-.678-1.129 8.56 8.56 0 01-.172-2.028v-8.545h3.119a7.326 7.326 0 012.034.24c.555.19 1.024.546 1.369 1.027a5.06 5.06 0 01.703 1.56c.222.66.357 1.344.419 2.028h1.467V47.696h-1.467c-.074.62-.21 1.242-.395 1.838a5.29 5.29 0 01-.739 1.56c-.321.43-.74.76-1.221.975a6.128 6.128 0 01-2.195.292h-3.12V41.04h4.353c.703 0 1.357 0 1.911.038.568.038 1.061.064 1.443.127.777.102 1.603.736 2.466 1.877a9.443 9.443 0 011.689 3.245h1.467V39.48H78.589c-.061.494-.16.976-.283 1.445a19.682 19.682 0 01-.63 2.054l-6.78 17.864-7.94-21.363h-9.433v1.42a6.768 6.768 0 011.738.304 3.933 3.933 0 011.48.799c.382.355.666.799.839 1.306.221.66.32 1.369.295 2.066v14.568a20.52 20.52 0 01-.258 3.892 2.97 2.97 0 01-.938 1.724 3.32 3.32 0 01-1.492.66c-.604.139-1.22.24-1.849.304v1.42h11.183v-1.42a10.324 10.324 0 01-1.75-.406c-.9-.253-1.493-.52-1.776-.799a3.6 3.6 0 01-.925-1.85 18.218 18.218 0 01-.308-3.753V42.738h.259L69.009 67.5h.974l9.445-24.254h.296V63.95a2.51 2.51 0 01-.284 1.23 2.58 2.58 0 01-.888.875 4.012 4.012 0 01-1.43.342 23.11 23.11 0 01-1.714.14v1.42h12.243v-.013h22.44l.531-8.38-1.369-.013a18.843 18.843 0 01-1.27 2.903zm-16.94 1.636c.011.418-.075.836-.247 1.217a1.875 1.875 0 01-.864.786 5.4 5.4 0 01-1.27.266c-.48.063-.863.101-1.208.14a10.832 10.832 0 01-1.245-.165 4.257 4.257 0 01-1.245-.355 2.008 2.008 0 01-.9-.837 2.586 2.586 0 01-.235-1.18V43.424c0-.419.074-.837.235-1.23.172-.393.493-.684.9-.799a10.51 10.51 0 011.245-.304 7.877 7.877 0 011.097-.14c.407.051.814.115 1.22.203.482.102.95.254 1.407.457.394.152.715.456.9.837.148.367.222.773.21 1.166V64.09z" fill="#000"/><path d="M54.854 53.768a17.337 17.337 0 00-1.035-6.136 14.029 14.029 0 00-2.873-4.742 12.487 12.487 0 00-4.217-2.992l-.012-.012a13.02 13.02 0 00-10.27-.026 12.658 12.658 0 00-4.267 3.005 14.573 14.573 0 00-2.91 4.691 17.364 17.364 0 00-1.06 6.187c-.012 2.029.32 4.044.999 5.946a14.27 14.27 0 002.762 4.73 12.518 12.518 0 004.216 3.105 13.172 13.172 0 0010.444.064 12.719 12.719 0 004.216-2.967 13.665 13.665 0 002.922-4.716 16.594 16.594 0 001.085-6.137zm-5.24 5.148a13.447 13.447 0 01-1.59 4.133 7.64 7.64 0 01-2.737 2.802v-.013a7.177 7.177 0 01-3.773 1.002 7.091 7.091 0 01-3.81-.99 8.092 8.092 0 01-2.651-2.75 13.792 13.792 0 01-1.603-4.133 24.64 24.64 0 01-.505-5.211 24.203 24.203 0 01.48-4.983c.272-1.445.765-2.84 1.455-4.133a8.556 8.556 0 012.676-2.954 6.833 6.833 0 013.982-1.078 7.133 7.133 0 013.7.913 7.856 7.856 0 012.7 2.663 13.4 13.4 0 011.627 4.209c.715 3.461.74 7.036.05 10.523z" fill="#000"/><path d="M26.151 65.99a1.98 1.98 0 01-.887-.836 2.75 2.75 0 01-.223-1.18V43.41c0-.418.075-.837.223-1.23.16-.393.493-.684.887-.798a9.021 9.021 0 011.184-.305 7.972 7.972 0 011.344-.177v-1.42H17.175v1.42c.444.038.876.114 1.295.24.444.115.863.267 1.282.457.382.165.69.457.876.837.172.368.258.76.258 1.166v8.634H7.88V43.41c0-.418.074-.837.222-1.23a1.4 1.4 0 01.887-.798 9.022 9.022 0 011.184-.305 7.998 7.998 0 011.332-.177v-1.42H0v1.42c.444.038.875.114 1.295.24a7.86 7.86 0 011.282.457c.382.165.69.457.875.837.173.368.26.76.26 1.166v20.552a2.64 2.64 0 01-.272 1.268c-.197.33-.506.596-.863.722-.395.14-.802.229-1.22.241L0 66.498v1.42h11.491v-1.42a7.872 7.872 0 01-1.331-.203 4.904 4.904 0 01-1.184-.355 1.92 1.92 0 01-.888-.837 2.748 2.748 0 01-.222-1.18v-9.901h12.996v10.13a2.64 2.64 0 01-.271 1.268c-.198.33-.494.596-.864.722-.394.14-.801.229-1.22.241l-1.356.115v1.42h11.49l.026-1.383a8.003 8.003 0 01-1.345-.202 4.415 4.415 0 01-1.17-.343zm84.853-56.328c.173-.241.259-.546.247-.85a1.16 1.16 0 00-.136-.608 1.152 1.152 0 00-.37-.406 1.201 1.201 0 00-.493-.203 5.447 5.447 0 00-.641-.038h-1.159v4.615h.592v-1.838h.678l1.405 1.838h.777l-1.578-2.003c.271-.102.505-.28.678-.507zm-1.455.164h-.505V8.09h.591c.136 0 .284.012.42.038a.786.786 0 01.296.126.518.518 0 01.209.254c.049.114.074.24.074.368 0 .14-.025.279-.062.418h-.012a.763.763 0 01-.542.507 5.53 5.53 0 01-.469.025z" fill="#000"/><path d="M109.944 5.693c-2.244 0-4.057 1.864-4.057 4.171 0 2.295 1.813 4.172 4.057 4.172 2.231 0 4.044-1.864 4.056-4.172 0-2.307-1.812-4.17-4.056-4.17zm0 7.747c-1.924 0-3.477-1.598-3.477-3.576 0-1.977 1.553-3.575 3.477-3.575 1.923 0 3.477 1.61 3.477 3.575.012 1.978-1.554 3.576-3.477 3.576z" fill="#000"/></svg>