<svg width="201" height="63" fill="none" xmlns="http://www.w3.org/2000/svg"><circle cx="29.5" cy="31.5" r="8.5" stroke="#2026B2" stroke-width="2"/><circle cx="40" cy="7" r="6" stroke="#2026B2" stroke-width="2"/><circle cx="7" cy="49" r="6" stroke="#2026B2" stroke-width="2"/><circle cx="25.5" cy="52.5" r="2.5" stroke="#2026B2" stroke-width="2"/><circle cx="43.5" cy="58.5" r="3.5" stroke="#2026B2" stroke-width="2"/><path d="M33 23l4.5-10M23 37.5L12.5 45M26 49.5l1.5-9m5.5-1L41.5 55" stroke="#2026B2" stroke-width="2"/><path d="M64.251 14.343l11.11 12.852V14.656h3.113v18.283l-1.974.566-11.19-12.933v12.65h-3.105V14.94l2.053-.596h-.007zm26.282 7.837H97v2.743h-6.468v5.43h8.36l-.386 2.862h-11.3V14.648H97.65v2.832h-7.11v4.7h-.008zm26.508-7.896l3.114.625-6.498 10.021v8.292h-3.384V24.93l-6.468-10.02 3.443-.627 4.94 7.615 4.861-7.614h-.008zm13.112 18.938h-3.384V14.656h3.384v18.566zm9.209-18.484c2.112-.224 3.252-.283 4.94-.283 4.861 0 7.499 2.011 7.499 5.714 0 1.587-.724 3.114-1.915 4.076-.416.342-.694.506-1.418.82l5.358 8.15h-3.969l-4.502-7.108h-2.609v7.108h-3.384V14.73v.008zm3.384 8.888h3.252c1.221 0 2.441-1.557 2.441-3.174 0-2.063-1.447-3.285-3.917-3.285h-.446c-.388 0-.475 0-1.33.03v6.429zm43.099-9.283l11.109 12.852V14.656h3.113v18.283l-1.973.566-11.19-12.933v12.65h-3.106V14.94l2.054-.596h-.007z" fill="#000"/><circle cx="168" cy="24.107" r="8.5" stroke="#2026B2" stroke-width="3"/><path d="M62 48.245l2.61-7.808h2.433l2.646 7.808v.537H67.51l-.57-1.885h-2.61l-.548 1.885h-1.776v-.537H62zm2.785-2.898h1.695l-.84-2.816h-.022l-.833 2.816zm23.526-.685c0-2.78 1.6-4.329 4.29-4.329 1.067 0 1.732.179 2.456.522V42.5h-.833c-.366-.283-.797-.521-1.6-.521-1.287 0-2.003.715-2.003 2.645 0 1.93.548 2.741 1.71 2.741.431 0 .701-.044.935-.119V45.72h-.972v-1.386h3.1v3.926c-.856.432-1.909.634-3.056.634-2.668 0-4.034-1.528-4.034-4.232h.007zm26.837-4.225h5.635v1.595h-3.406v1.773h2.398v1.505h-2.398v1.922h3.523v1.55h-5.759v-8.345h.007zm25.317 0h2.398l2.682 4.828h.036v-4.828h1.849v8.345h-2.039l-3.055-5.476h-.036v5.476h-1.835v-8.345zm26.45 4.225c0-2.735 1.681-4.329 4.21-4.329 1.147 0 1.849.239 2.456.596v1.587h-.863c-.307-.283-.796-.551-1.535-.551-1.242 0-1.98.849-1.98 2.607 0 1.908.643 2.72 1.871 2.72.877 0 1.381-.336 1.776-.73h.796v1.512c-.621.462-1.498.812-2.711.812-2.456 0-4.027-1.527-4.027-4.232l.007.008zm28.299 4.128v-3.1l-2.507-4.686v-.56h2.105l1.637 3.257h.022l1.579-3.256h1.776v.559l-2.375 4.626v3.16h-2.244.007z" fill="#2026B2"/></svg>