<?xml version="1.0" encoding="utf-8"?><svg viewBox="0 0 315 355" xmlns="http://www.w3.org/2000/svg" xmlns:xlink="http://www.w3.org/1999/xlink"><style>:root>svg{display:none}:root>svg:target{display:block}</style><svg viewBox="0 0 41 40" id="1ะก" xmlns="http://www.w3.org/2000/svg"><path d="M22.87 3a2.9 2.9 0 011.834.655A6.112 6.112 0 0130.297 0c3.374 0 6.11 2.742 6.11 6.125 0 .135-.005.27-.013.402C38.424 6.768 40 8.567 40 10.75c0 2.263-1.695 4.113-3.833 4.242V15H20.833v-.043C18.668 14.653 17 12.717 17 10.375c0-1.982 1.196-3.674 2.877-4.332.04-1.688 1.366-3.042 2.993-3.042zm-4.482 34.014c.703.204 1.595.34 2.368.39.23.016 1.262.025 1.498.025H40V40H22.224a45.59 45.59 0 01-1.773-.038c-.948-.072-2.014-.244-2.881-.502a11.836 11.836 0 01-1.607-.673c-3.044-1.642-5.124-4.858-5.124-8.555 0-5.363 4.364-9.725 9.726-9.725 5.33 0 9.67 4.309 9.724 9.625h-2.58c-.055-3.894-3.238-7.047-7.144-7.047-3.941 0-7.145 3.208-7.145 7.147 0 2.871 1.705 5.346 4.153 6.48.138.063.684.264.815.302z"/><path d="M20.904 33.346c.18.015 1.163.022 1.35.022H40v2.482H22.18v-.004a42.224 42.224 0 01-1.424-.026c-.556-.04-1.241-.133-1.752-.267-.149-.039-.672-.21-.95-.372a5.544 5.544 0 01-3.047-4.95 5.557 5.557 0 015.558-5.556c3.036 0 5.5 2.435 5.552 5.457h-2.48a3.076 3.076 0 00-3.072-2.978 3.076 3.076 0 00-3.076 3.078c0 1.168.653 2.182 1.612 2.7.137.076.44.19.764.277a8.82 8.82 0 001.039.137zM6.65 39.99h2.6V20.492H2.853v2.599H6.65v16.9z"/><path d="M0 26.889v-2.5h5.35V39.99H2.853v-13.1H0zM12 7.414v1.1A9 9 0 003.5 17.5h1A8 8 0 0112 9.515v1.07c0 .892 1.077 1.338 1.707.708l1.586-1.586a1 1 0 000-1.414l-1.586-1.586c-.63-.63-1.707-.184-1.707.707zm26.855 12.174A5.5 5.5 0 0134 22.5v-1.086c0-.89-1.077-1.337-1.707-.707l-1.586 1.586a1 1 0 000 1.414l1.586 1.586c.63.63 1.707.184 1.707-.707V23.5a6.5 6.5 0 006.5-6.5h-1c0 .937-.234 1.817-.645 2.588z"/></svg><svg fill="none" viewBox="0 0 315 355" id="D" xmlns="http://www.w3.org/2000/svg"><path opacity=".05" d="M0 355V0h136.284c39.271 0 72.052 8 98.344 24 26.624 15.667 46.592 37 59.904 64C308.177 114.667 315 144.333 315 177c0 36-7.488 67.333-22.464 94-14.644 26.667-35.444 47.333-62.401 62-26.625 14.667-57.908 22-93.851 22H0zm216.157-178c0-18.333-3.162-34.333-9.485-48-6.323-14-15.475-24.833-27.456-32.5-11.981-7.667-26.292-11.5-42.932-11.5H97.346v185h38.938c16.973 0 31.283-4 42.932-12 11.981-8 21.133-19 27.456-33 6.323-14.333 9.485-30.333 9.485-48z" fill="#2026B2"/></svg><svg fill="none" viewBox="0 0 300 337" id="N" xmlns="http://www.w3.org/2000/svg"><path opacity=".05" d="M92.563 171.348V337H0V0h72.152l135.285 171.348V0H300v337h-73.576L92.564 171.348z" fill="#2026B2"/></svg><svg viewBox="0 0 40 40" id="SEO" xmlns="http://www.w3.org/2000/svg"><g clip-path="url(#da)"><path fill-rule="evenodd" clip-rule="evenodd" d="M14 0c5.106 0 9.525 2.944 11.651 7.227L27.44 5.44a1.74 1.74 0 01.026-.024l-1.842-1.842c-.617-.617-.204-1.676.669-1.708l6.178-.229a1 1 0 011.036 1.036l-.229 6.178c-.032.873-1.09 1.286-1.708.669l-1.983-1.984a1.695 1.695 0 01-.025.026l-2.824 2.823c.172.845.263 1.72.263 2.616 0 3.664-1.516 6.975-3.955 9.338l2.858 2.858.707-.707a2 2 0 012.829 0l9.85 9.851a2 2 0 010 2.828l-2.12 2.122a2 2 0 01-2.829 0L24.49 29.44a2 2 0 010-2.829l.707-.707-2.897-2.896A12.947 12.947 0 0114 26c-4.068 0-7.7-1.869-10.084-4.795l-1.355 1.356a1.5 1.5 0 01-2.122-2.122l1.83-1.83A12.949 12.949 0 011 13C1 5.82 6.82 0 14 0zm0 25c6.627 0 12-5.373 12-12 0-.595-.043-1.18-.127-1.752l-3.812 3.813a1.5 1.5 0 01-2.122 0L18 13.12l-6.44 6.44a1.5 1.5 0 01-2.12 0L7.5 17.62l-2.873 2.873A11.978 11.978 0 0014 25zm7-13.121l3.901-3.902A12 12 0 0014 1C7.373 1 2 6.373 2 13c0 1.728.365 3.371 1.023 4.856l3.416-3.417a1.5 1.5 0 012.122 0l1.939 1.94 6.44-6.44a1.5 1.5 0 012.12 0L21 11.88z"/></g><defs><clipPath id="da"><path fill="#fff" d="M0 0h40v40H0z"/></clipPath></defs></svg><svg viewBox="0 0 40 40" id="SMM" xmlns="http://www.w3.org/2000/svg"><path d="M23 0c.138 6.87 3.45 11 9.26 11h.328V7.069c2.135.22 3.749 1.839 4.396 3.931H40c-.828-3.127-3.005-4.856-4.364-5.517 1.359-.814 3.27-2.796 3.727-5.483h-2.74c-.594 2.18-2.357 4.162-4.035 4.35V0h-2.74v7.62C28.15 7.18 26.006 5.043 25.91 0H23z"/><path fill-rule="evenodd" clip-rule="evenodd" d="M11.703 29.504a2.8 2.8 0 012.797-2.797 2.797 2.797 0 11-2.797 2.797zm2.797 1.598a1.604 1.604 0 000-3.205 1.604 1.604 0 000 3.205z"/><path d="M17.409 27.044a.449.449 0 100-.898.449.449 0 000 .898z"/><path fill-rule="evenodd" clip-rule="evenodd" d="M16.529 24H12.47A3.476 3.476 0 009 27.47v4.059a3.476 3.476 0 003.47 3.47h4.059a3.476 3.476 0 003.47-3.47V27.47A3.476 3.476 0 0016.53 24zm2.276 3.47v4.059a2.28 2.28 0 01-2.276 2.276H12.47a2.28 2.28 0 01-2.276-2.276V27.47a2.28 2.28 0 012.276-2.276h4.059a2.28 2.28 0 012.276 2.276z"/><path fill-rule="evenodd" clip-rule="evenodd" d="M38 31.167a2 2 0 002-2v-5.813a2 2 0 00-2-2h-1.334v-3.271c0-3.083 0-3.271-3.333-3.271H21.666V8.271c0-1.798-1.5-3.271-3.333-3.271h-15C1.5 5 0 6.473 0 8.271v9.812c0 1.799 1.5 3.271 3.333 3.271v15.72H1a1 1 0 00-1 1v.635c0 1.29 1.451 1.29 3.255 1.289L36.738 40C38.546 40 40 40 40 38.71v-.637a1 1 0 00-1-1h-2.334v-5.906H38zM9.583 10.724l4.167 2.453-4.167 2.453v-4.906zm25.75 10.63h-10a2 2 0 00-2 2v8.701c0 .886 1.068 1.335 1.7.714l.466-.457a4 4 0 012.802-1.145h7.032v5.906h-8.148a2 2 0 00-.972.252l-.306.17a4 4 0 01-1.945.505h-7.924a4 4 0 01-1.945-.505l-.306-.17a2 2 0 00-.973-.252H4.666v-15.72h13.667c1.833 0 3.333-3.472 3.333-5.27h13.667v5.271z"/></svg><svg viewBox="0 0 40 40" id="Union" xmlns="http://www.w3.org/2000/svg"><path d="M1.25 0C.56 0 0 .563 0 1.258V6.29c0 .695.56 1.258 1.25 1.258h5c.69 0 1.25-.563 1.25-1.258V4.403h6.366a15.73 15.73 0 00-9.447 13.278A2.514 2.514 0 002.5 20.13c0 1.39 1.12 2.516 2.5 2.516s2.5-1.126 2.5-2.516c0-1.156-.774-2.13-1.829-2.424.527-6.652 5.524-12.035 11.966-13.107A2.502 2.502 0 0020 6.29a2.502 2.502 0 002.363-1.692c6.442 1.072 11.439 6.455 11.966 13.107a2.515 2.515 0 00-1.829 2.424c0 1.39 1.12 2.516 2.5 2.516s2.5-1.126 2.5-2.516a2.514 2.514 0 00-1.92-2.448 15.729 15.729 0 00-9.446-13.278H32.5V6.29c0 .695.56 1.258 1.25 1.258h5c.69 0 1.25-.563 1.25-1.258V1.258C40 .563 39.44 0 38.75 0h-5c-.69 0-1.25.563-1.25 1.258v1.887H22.421A2.504 2.504 0 0020 1.258a2.504 2.504 0 00-2.421 1.887H7.5V1.258C7.5.563 6.94 0 6.25 0h-5zM20 26.42c.69 0 1.25-.564 1.25-1.259s-.56-1.258-1.25-1.258-1.25.564-1.25 1.258c0 .695.56 1.258 1.25 1.258z"/><path d="M10 25.161c2.5-2.013 6.875-10.064 8.75-13.838v10.279a3.774 3.774 0 00-2.5 3.56c0 2.084 1.679 3.774 3.75 3.774 2.071 0 3.75-1.69 3.75-3.775a3.774 3.774 0 00-2.5-3.56V11.324C23.125 15.097 27.5 23.148 30 25.16c-2.883 2.176-3.991 4.483-4.307 6.073-.152.762-.771 1.476-1.544 1.476h-8.298c-.773 0-1.392-.714-1.544-1.476-.316-1.59-1.424-3.897-4.307-6.073zm5 10.065c-2.071 0-3.75 2.69-3.75 4.774h17.5c0-2.084-1.679-4.774-3.75-4.774H15z"/></svg><svg viewBox="0 0 40 40" id="advertisement" xmlns="http://www.w3.org/2000/svg"><g fill-rule="evenodd" clip-rule="evenodd"><path d="M26 20a6 6 0 11-12 0 6 6 0 0112 0zm-3 0a3 3 0 11-6 0 3 3 0 016 0z"/><path d="M20 33c7.18 0 13-5.82 13-13S27.18 7 20 7 7 12.82 7 20s5.82 13 13 13zm0-4a9 9 0 100-18 9 9 0 000 18z"/><path d="M20 40c11.046 0 20-8.954 20-20S31.046 0 20 0 0 8.954 0 20s8.954 20 20 20zm0-4c8.837 0 16-7.163 16-16S28.837 4 20 4 4 11.163 4 20s7.163 16 16 16z"/></g></svg><svg fill="none" viewBox="0 0 32 19" id="arrow" xmlns="http://www.w3.org/2000/svg"><path d="M1 9.5h29.5m0 0L22 18m8.5-8.5L22 1" stroke="#fff" stroke-width="2" stroke-linecap="round" stroke-linejoin="round"/></svg><svg fill="none" viewBox="0 0 10 7" id="arrow-down" xmlns="http://www.w3.org/2000/svg"><path d="M.762 1.5l4 4 4-4" stroke="url(#ia)" stroke-width="2"/><defs><linearGradient id="ia" x1="4.762" y1="1.5" x2="4.762" y2="5.5" gradientUnits="userSpaceOnUse"><stop stop-color="#2026B2" stop-opacity="0"/><stop offset="1" stop-color="#2026B2"/></linearGradient></defs></svg><svg fill="none" viewBox="0 0 17 11" id="arrow_small" xmlns="http://www.w3.org/2000/svg"><path d="M1 5.25h14.75m0 0L11.5 9.5m4.25-4.25L11.5 1" stroke="#fff" stroke-width="2" stroke-linecap="round" stroke-linejoin="round"/></svg><svg fill="none" viewBox="0 0 9 9" id="close" xmlns="http://www.w3.org/2000/svg"><path d="M.964 9L0 8.036 8.036 0 9 .964.964 9z" fill="#fff"/><path d="M0 .964L.964 0 9 8.036 8.036 9 0 .964z" fill="#fff"/></svg><svg viewBox="0 0 40 40" id="develop" xmlns="http://www.w3.org/2000/svg"><path d="M26.801 13.732a1.5 1.5 0 01.467 2.069l-12 19a1.5 1.5 0 11-2.536-1.602l12-19a1.5 1.5 0 012.069-.467zM15.06 18.06a1.5 1.5 0 00-2.12-2.12l-4 4a1.5 1.5 0 000 2.12l4 4a1.5 1.5 0 002.12-2.12L12.122 21l2.94-2.94zm9.88 7a1.5 1.5 0 012.12-2.12l4 4a1.5 1.5 0 010 2.12l-4 4a1.5 1.5 0 01-2.12-2.12L27.878 28l-2.94-2.94z"/><path fill-rule="evenodd" clip-rule="evenodd" d="M0 6v28a6 6 0 006 6h28a6 6 0 006-6V6a6 6 0 00-6-6H6a6 6 0 00-6 6zm1 4h38v24a5 5 0 01-5 5H6a5 5 0 01-5-5V10zm26-4a1 1 0 100-2 1 1 0 000 2zm5-1a1 1 0 11-2 0 1 1 0 012 0zm3 1a1 1 0 100-2 1 1 0 000 2z"/></svg><svg fill="none" viewBox="0 0 36 36" id="menu-close" xmlns="http://www.w3.org/2000/svg"><path d="M10 10l16 16m0-16L10 26" stroke="#2026B2" stroke-width="2" stroke-linecap="round" stroke-linejoin="round"/></svg><svg fill="none" viewBox="0 0 22 14" id="slider-arrow" xmlns="http://www.w3.org/2000/svg"><path d="M1 7h20m0 0l-6.339 6M21 7l-6.339-6" stroke="#fff" stroke-width="2" stroke-linecap="round" stroke-linejoin="round"/></svg><svg viewBox="0 0 40 40" id="technical-support" xmlns="http://www.w3.org/2000/svg"><path d="M40 8.393l-3.932-.543a.742.742 0 01-.452-.239.703.703 0 01-.18-.468V2.857c0-.172.063-.338.18-.468a.742.742 0 01.452-.239L40 1.607A5.21 5.21 0 0038.258.415 5.338 5.338 0 0036.17 0a5.881 5.881 0 00-3.06.839 5.654 5.654 0 00-2.136 2.29.73.73 0 01-.274.32.762.762 0 01-.41.122H9.71a.762.762 0 01-.41-.121.73.73 0 01-.274-.321A5.654 5.654 0 006.89.839 5.881 5.881 0 003.83 0a5.338 5.338 0 00-2.088.415A5.21 5.21 0 000 1.607l3.932.543a.741.741 0 01.452.239c.117.13.18.296.18.468v4.286a.703.703 0 01-.18.468.741.741 0 01-.452.239L0 8.393a5.21 5.21 0 001.742 1.192c.659.277 1.37.418 2.087.415 2.316 0 4.587-1.357 5.182-3.086a.727.727 0 01.27-.35.76.76 0 01.429-.135h20.58a.76.76 0 01.429.135c.125.087.219.21.27.35C31.584 8.643 33.855 10 36.17 10a5.338 5.338 0 002.088-.415A5.21 5.21 0 0040 8.393zM23 20.667a3 3 0 11-6 0 3 3 0 016 0z"/><path fill-rule="evenodd" clip-rule="evenodd" d="M27.66 18.38l1.78.293a.667.667 0 01.56.66V22a.667.667 0 01-.56.66l-1.78.293a8.129 8.129 0 01-.627 1.514l1.054 1.466a.667.667 0 01-.074.86l-1.886 1.887a.667.667 0 01-.86.073L23.8 27.7c-.483.258-.99.468-1.513.627l-.294 1.78a.666.666 0 01-.66.56h-2.666a.667.667 0 01-.66-.56l-.294-1.78A8.324 8.324 0 0116.2 27.7l-1.467 1.053a.667.667 0 01-.86-.073l-1.886-1.887a.667.667 0 01-.074-.86l1.06-1.48a7.24 7.24 0 01-.293-.766l-.068-.192a7.974 7.974 0 00-.199-.528l-1.853-.307A.667.667 0 0110 22v-2.667a.667.667 0 01.56-.66l1.773-.293a6.59 6.59 0 01.614-1.54l-1.034-1.44a.667.667 0 01.074-.86l1.886-1.887a.667.667 0 01.86-.073l1.44 1.033a6.592 6.592 0 011.54-.613l.294-1.773a.667.667 0 01.66-.56h2.666a.667.667 0 01.66.56l.294 1.78a8.29 8.29 0 011.513.626l1.467-1.053a.666.666 0 01.86.073l1.886 1.887a.667.667 0 01.074.86l-1.054 1.467c.26.482.47.989.627 1.513zm-10.067 5.89c.712.476 1.55.73 2.407.73a4.342 4.342 0 004.333-4.333 4.333 4.333 0 10-6.74 3.603z"/><path d="M9.266 34.337l.488.495a.697.697 0 00.878.083l1.01-.668v2.18h20.503v-.766l4.474-.613 2.884 1.156v1.839l-2.884 1.156-4.474-.613v-.766H11.64V40l-1.01-.669a.69.69 0 00-.877.084l-.495.495-5.955.027a2.92 2.92 0 01-1.985-.815 2.803 2.803 0 011.978-4.785h5.97zM36 22a.667.667 0 00-.667-.667h-4v1.334h3.334V26a.666.666 0 00.666.667H40v-1.334h-4V22zm-30.667.667V26a.667.667 0 01-.666.667H0v-1.334h4V22a.667.667 0 01.667-.667h4v1.334H5.333zm30-8a.667.667 0 00-.666.666v3.334h-3.334V20h4a.667.667 0 00.667-.667V16h4v-1.333h-4.667zM4.195 19.805A.667.667 0 014 19.333V16H0v-1.333h4.667a.667.667 0 01.666.666v3.334h3.334V20h-4a.667.667 0 01-.472-.195z"/></svg><svg fill="none" viewBox="0 0 28 29" id="tg" xmlns="http://www.w3.org/2000/svg"><g clip-path="url(#pa)"><mask id="pa" style="mask-type:luminance" maskUnits="userSpaceOnUse" x="-1" y="0" width="29" height="29"><path d="M28 .5H0v28h28V.5z" fill="#fff"/></mask><g mask="url(#pa)"><path d="M14 .5a13.998 13.998 0 00-9.9 23.9A13.998 13.998 0 1023.898 4.6 13.998 13.998 0 0014 .5z" fill="url(#pc)"/><path d="M6.337 14.352c4.082-1.778 6.803-2.95 8.164-3.517 3.89-1.617 4.696-1.898 5.224-1.907.115-.002.374.027.542.163.14.115.18.27.2.38.017.108.04.356.021.55-.21 2.214-1.122 7.586-1.586 10.066-.195 1.049-.582 1.4-.956 1.435-.814.075-1.43-.538-2.218-1.054-1.232-.807-1.927-1.31-3.124-2.098-1.382-.911-.485-1.412.302-2.23.206-.214 3.789-3.473 3.857-3.768.008-.037.017-.175-.066-.247-.08-.073-.201-.048-.289-.029-.124.028-2.09 1.33-5.906 3.903-.558.384-1.063.571-1.518.561-.499-.01-1.461-.282-2.177-.514-.875-.285-1.572-.436-1.511-.92.03-.252.378-.51 1.041-.774z" fill="#fff"/></g></g><defs><linearGradient id="pc" x1="14" y1=".5" x2="14" y2="28.5" gradientUnits="userSpaceOnUse"><stop stop-color="#2AABEE"/><stop offset="1" stop-color="#229ED9"/></linearGradient><clipPath id="pa"><path fill="#fff" transform="translate(0 .5)" d="M0 0h28v28H0z"/></clipPath></defs></svg><svg viewBox="0 0 40 40" id="usability" xmlns="http://www.w3.org/2000/svg"><path fill-rule="evenodd" clip-rule="evenodd" d="M3 0a3 3 0 00-3 3v6a3 3 0 003 3h6a3 3 0 003-3V3a3 3 0 00-3-3H3zm0 6.706l1.118-1c.294.53.706 1 .706 1C5.588 5.902 7.764 4.118 9.47 4c.191.47.318.77.4.964.097.233.129.309.129.33C8.882 5.412 6.494 6.46 4.47 9 3.942 7.588 3.236 6.902 3 6.706zM3 14a3 3 0 00-3 3v6a3 3 0 003 3h6a3 3 0 003-3v-6a3 3 0 00-3-3H3zm0 6.706l1.118-1c.294.53.706 1 .706 1 .764-.804 2.94-2.588 4.647-2.706.191.469.318.77.4.964.097.233.129.309.129.33-1.118.118-3.506 1.165-5.53 3.706-.529-1.412-1.235-2.098-1.47-2.294zM0 31a3 3 0 013-3h6a3 3 0 013 3v6a3 3 0 01-3 3H3a3 3 0 01-3-3v-6zm4.118 2.706l-1.118 1c.235.196.941.882 1.47 2.294 2.024-2.541 4.412-3.588 5.53-3.706 0-.021-.032-.097-.13-.33-.08-.193-.208-.495-.4-.964-1.705.118-3.882 1.902-4.646 2.706 0 0-.412-.47-.706-1z"/><path d="M40 4.5H16v-1h24v1zm-24 14h24v-1H16v1zm24 14H16v-1h24v1zm-24-24h14v-1H16v1zm14 14H16v-1h14v1zm-14 14h14v-1H16v1z"/></svg><svg fill="none" viewBox="0 0 28 29" id="wa" xmlns="http://www.w3.org/2000/svg"><g clip-path="url(#ra)"><path d="M.117 14.374a13.798 13.798 0 001.86 6.936L0 28.5l7.39-1.93a13.985 13.985 0 006.663 1.69h.006c7.683 0 13.938-6.225 13.94-13.875a13.757 13.757 0 00-4.079-9.816A13.885 13.885 0 0014.058.5C6.374.5.12 6.724.117 14.374z" fill="url(#rb)"/><path d="M10.188 8.505c-.261-.564-.536-.575-.784-.585-.203-.009-.436-.008-.668-.008a1.3 1.3 0 00-.929.423c-.319.34-1.219 1.159-1.219 2.825 0 1.666 1.248 3.276 1.422 3.503.175.225 2.41 3.754 5.951 5.111 2.943 1.129 3.542.904 4.18.848.639-.057 2.061-.82 2.351-1.61.29-.79.29-1.469.204-1.61-.087-.141-.32-.226-.668-.395-.349-.17-2.061-.99-2.38-1.102-.32-.113-.552-.17-.784.17-.233.338-.9 1.1-1.103 1.327-.203.226-.406.254-.755.085-.348-.17-1.47-.527-2.801-1.68-1.036-.899-1.735-2.007-1.938-2.346-.203-.339-.022-.522.153-.691.156-.152.348-.396.523-.593.173-.198.231-.34.348-.565.116-.226.058-.424-.03-.593-.087-.17-.764-1.845-1.073-2.514z" fill="#fff"/></g><defs><linearGradient id="rb" x1="14" y1="28.5" x2="14" y2=".5" gradientUnits="userSpaceOnUse"><stop stop-color="#1FAF38"/><stop offset="1" stop-color="#60D669"/></linearGradient><clipPath id="ra"><path fill="#fff" transform="translate(0 .5)" d="M0 0h28v28H0z"/></clipPath></defs></svg><svg fill="none" viewBox="0 0 24 24" id="zoom" xmlns="http://www.w3.org/2000/svg"><g stroke="#fff" stroke-width="2"><circle cx="10" cy="10" r="9"/><path d="M17 17l6 6M6 10h8m-4-4v8" stroke-linecap="round"/></g></svg></svg>