<svg width="207" height="19" fill="none" xmlns="http://www.w3.org/2000/svg"><g clip-path="url(#clip0_89_3012)"><path d="M15.487.334H.003v15.904L15.487.334z" fill="#9FCFAC"/><path d="M1.385 17.692h15.48V1.791L1.384 17.692z" fill="#005E68"/><path d="M25.86.356h-5.478V17.69h3.383v-6.474h2.168c3.952 0 6.218-1.95 6.218-5.346v-.095C32.148 2.331 29.855.356 25.86.356zm2.98 5.514c0 1.8-1.03 2.75-2.981 2.75h-2.095v-5.5h2.095c2.03 0 2.981.836 2.981 2.653v.097zm11.546 1.296h-2.759V3.17h7.343V.356h-10.7V17.69h6.054c3.865 0 6.082-1.922 6.082-5.273v-.103c0-3.315-2.136-5.148-6.02-5.148zM37.62 9.764h2.496c2.036 0 3.022.836 3.022 2.532v.095c0 1.7-.975 2.56-2.905 2.56h-2.605l-.008-5.187zm17.14-1.131l6.988-8.3h-3.713L51.909 7.8V.356h-3.382V17.69h3.382v-7.672l6.147 7.672h4.03l-7.325-9.056z" fill="#1D1D1B"/></g><path d="M196.035 13.76L204.674.242H207v17.544h-2.326V4.253l-8.639 13.532h-2.314V.241h2.314v13.52zm-17.617 0l8.64-13.519h2.325v17.544h-2.325V4.253l-8.64 13.532h-2.313V.241h2.313v13.52zm-8.579-5.976v1.892h-9.495V7.784h9.495zM160.706.24v17.544h-2.326V.241h2.326zm11.158 0v17.544h-2.314V.241h2.314zm-23.087 1.555l-5.808 15.99h-2.374L147.283.241h1.53l-.036 1.554zm4.868 15.99l-5.82-15.99-.036-1.554h1.53l6.712 17.544h-2.386zm-.301-6.495v1.904h-9.857V11.29h9.857zM138.065.241v17.544h-2.313V2.145H127.1v15.64h-2.326V.241h13.291zm-34.209 0h2.254l5.747 14.303L117.593.24h2.265l-7.133 17.544h-1.759L103.856.241zm-.735 0h1.989l.325 10.7v6.844h-2.314V.241zm15.472 0h1.988v17.544h-2.313v-6.844l.325-10.7zM99.64 8.459v1.108c0 1.318-.165 2.498-.495 3.543-.33 1.044-.803 1.932-1.422 2.663a6.166 6.166 0 01-2.229 1.675c-.86.385-1.823.578-2.892.578-1.036 0-1.988-.193-2.856-.578a6.422 6.422 0 01-2.24-1.675c-.627-.731-1.113-1.619-1.459-2.663-.345-1.044-.518-2.225-.518-3.543V8.46c0-1.318.169-2.495.506-3.53.346-1.045.832-1.933 1.458-2.664a6.246 6.246 0 012.23-1.687C90.59.193 91.541 0 92.577 0c1.069 0 2.032.193 2.892.578.868.386 1.61.948 2.23 1.687.626.731 1.104 1.619 1.433 2.663.338 1.036.506 2.213.506 3.53zm-2.302 1.108V8.435c0-1.045-.109-1.968-.326-2.772-.209-.803-.518-1.478-.927-2.024a4.003 4.003 0 00-1.507-1.241c-.586-.281-1.253-.422-2-.422-.723 0-1.377.14-1.964.422a4.158 4.158 0 00-1.494 1.24c-.41.547-.727 1.222-.952 2.025-.225.804-.337 1.727-.337 2.772v1.132c0 1.053.112 1.984.337 2.796.225.803.546 1.482.964 2.036.426.546.928.96 1.506 1.241.587.281 1.241.422 1.964.422.755 0 1.426-.14 2.013-.422a3.93 3.93 0 001.482-1.24c.41-.555.719-1.234.927-2.037.21-.812.314-1.743.314-2.796zM73.094.241v17.544H70.77V.241h2.325zm10.809 0l-7.616 9.652h-4.12l-.362-1.928h3.097L81.022.24h2.88zm-2.338 17.544l-6.591-8.194 1.301-2.036 8.134 10.23h-2.844z" fill="#000"/><defs><clipPath id="clip0_89_3012"><path fill="#fff" transform="translate(0 .334)" d="M0 0h62.09v17.358H0z"/></clipPath></defs></svg>