<svg width="169" height="30" fill="none" xmlns="http://www.w3.org/2000/svg"><path d="M114.157 21.884h15.163v-3.36h-9.994c1.379-5.514 9.822-6.72 9.822-12.838 0-3.274-2.24-5.686-6.979-5.686-2.929 0-5.514.862-7.237 1.723l1.034 3.102c1.551-.776 3.36-1.465 5.6-1.465 1.723 0 3.36.775 3.36 2.757 0 4.48-9.908 4.825-10.769 15.767zm15.594-5.342h9.736v5.342h3.877v-5.342h3.274v-3.274h-3.274V0h-2.843l-10.77 13.957v2.585zm4.394-3.102l5.514-7.41c0 .604-.172 2.5-.172 4.223v3.101h-2.585c-.775 0-2.24.086-2.757.086z" fill="#005893"/><path d="M4.05 18.61v-6.806h1.636c1.465 0 2.671.172 3.533.689.861.517 1.378 1.378 1.378 2.757 0 2.326-1.378 3.36-4.652 3.36H4.049zM.085 21.884H5.86c6.461 0 8.788-2.843 8.788-6.807 0-2.67-1.12-4.48-3.102-5.514-1.55-.861-3.532-1.12-5.945-1.12H4.05V3.274h8.701L13.785.086H0v21.798h.086zm17.231 0h3.791l4.911-7.065c.948-1.292 1.637-2.585 2.068-3.274h.086a37.925 37.925 0 00-.172 3.36v6.893h3.877V6.29h-3.791l-4.911 7.064c-.862 1.293-1.637 2.585-2.068 3.274h-.086c.086-.947.172-2.154.172-3.36V6.376h-3.877v15.508zm21.195 0h3.963V9.564h4.652L48.16 6.29H33.773v3.273h4.739v12.32zm11.028 7.84h3.877v-7.84c.775.258 1.55.344 2.412.344 4.911 0 8.099-3.36 8.099-8.185 0-4.997-2.93-8.184-8.53-8.184-2.154 0-4.221.43-5.944.947v22.918h.086zm3.877-11.2V9.39a6.122 6.122 0 011.809-.258c2.843 0 4.653 1.55 4.653 4.91 0 3.016-1.465 4.911-4.395 4.911-.775 0-1.378-.172-2.067-.43zm12.837 3.36h3.79l4.912-7.065c.947-1.292 1.637-2.585 2.067-3.274h.087a37.887 37.887 0 00-.173 3.36v6.893h3.877V6.29h-3.79l-4.911 7.064c-.862 1.293-1.637 2.585-2.068 3.274h-.086c.086-.947.172-2.154.172-3.36V6.376h-3.877v15.508zm17.662 0h3.963v-6.462h2.326c.431 0 .862.43 1.379 1.465l1.981 4.997h4.222l-2.843-5.945c-.517-1.034-1.034-1.637-1.81-1.896v-.086c1.293-.775 1.465-3.015 2.24-4.135.26-.345.604-.517 1.12-.517.26 0 .604 0 .862.172v-3.36c-.43-.172-1.206-.258-1.637-.258-1.378 0-2.24.517-2.843 1.378-1.292 1.896-1.292 5.17-3.188 5.17H87.88V6.29h-3.963v15.594zm22.659.344c2.154 0 4.136-.689 5.342-1.55l-1.12-2.671c-1.12.603-2.154 1.034-3.619 1.034-2.671 0-4.394-1.724-4.394-4.911 0-2.844 1.723-5.084 4.653-5.084 1.55 0 2.67.431 3.79 1.207v-3.36c-.861-.517-2.24-1.034-4.221-1.034-4.653 0-8.271 3.446-8.271 8.357 0 4.48 2.757 8.012 7.84 8.012z" fill="#0BBBEF"/><path d="M159.475 16.542c4.222 0 7.668-3.446 7.668-7.668 0-4.222-3.446-7.668-7.668-7.668-4.222 0-7.668 3.446-7.668 7.668.086 4.222 3.446 7.668 7.668 7.668z" stroke="#005893" stroke-width="1.769"/><path d="M164.3 8.874h-4.222V4.652h-1.12v5.342h5.342v-1.12z" fill="#005893"/></svg>