<svg width="84" height="104" fill="none" xmlns="http://www.w3.org/2000/svg"><path d="M28.476 9.47c.796-2.088 1.89-4.011 3.514-5.57 6.497-6.33 17.238-4.74 21.647 3.216 3.315 6.034 6.829 11.934 10.243 17.901 5.702 9.912 11.47 19.824 17.106 29.77 4.74 8.32-.398 18.829-9.813 20.254-5.768.862-11.171-1.79-14.155-6.962-5.005-8.718-10.044-17.436-15.05-26.122a3.005 3.005 0 00-.365-.53c-.53-.431-.762-1.061-1.094-1.625-2.22-3.911-4.508-7.79-6.729-11.668-1.425-2.52-2.917-5.006-4.343-7.526-1.293-2.254-1.89-4.707-1.823-7.293.1-1.326.265-2.652.862-3.845z" fill="#3C8BD9"/><path d="M28.476 9.47c-.298 1.194-.563 2.387-.63 3.647-.1 2.784.597 5.37 1.99 7.79a3495.401 3495.401 0 0110.906 18.862c.331.564.596 1.128.928 1.658a1652.98 1652.98 0 01-6 10.31c-2.785 4.806-5.57 9.646-8.387 14.453-.133 0-.166-.066-.2-.166-.032-.265.067-.497.133-.762 1.36-4.973.232-9.382-3.182-13.16-2.088-2.288-4.74-3.581-7.79-4.012-3.978-.564-7.492.464-10.642 2.95-.563.431-.928 1.061-1.59 1.393-.133 0-.2-.067-.233-.166 1.591-2.752 3.15-5.503 4.74-8.254A11459.11 11459.11 0 0128.245 9.835c.066-.133.166-.232.232-.365z" fill="#FABC04"/><path d="M3.912 52.366c.63-.563 1.226-1.16 1.89-1.69 8.055-6.365 20.154-1.757 21.912 8.32.43 2.42.198 4.74-.53 7.061a3.473 3.473 0 01-.134.564c-.298.53-.563 1.094-.895 1.624-2.95 4.873-7.293 7.293-12.994 6.928C6.63 74.71 1.49 69.803.597 63.306c-.431-3.15.199-6.1 1.823-8.818.331-.597.73-1.127 1.094-1.724.166-.133.1-.398.398-.398z" fill="#34A852"/><path d="M3.912 52.366c-.133.133-.133.365-.365.398-.033-.232.1-.364.232-.53l.133.132z" fill="#FABC04"/><path d="M27.05 66.621c-.132-.232 0-.398.133-.563l.133.132-.265.431z" fill="#E1C025"/><path d="M6.862 86.312C3.116 86.312 0 89.33 0 93.042c0 3.712 3.116 6.696 6.862 6.696 2.022 0 3.514-.663 4.707-1.89 1.227-1.226 1.592-2.917 1.592-4.276 0-.43-.034-.829-.1-1.16H6.862v1.823h4.41c-.133 1.028-.465 1.79-.995 2.32-.63.63-1.658 1.36-3.415 1.36-2.718 0-4.84-2.188-4.84-4.873s2.122-4.873 4.84-4.873c1.459 0 2.553.563 3.315 1.326l1.293-1.293c-1.094-1.061-2.553-1.89-4.608-1.89zM18.1 91.12c-2.354 0-4.31 1.823-4.31 4.376 0 2.52 1.923 4.376 4.31 4.376 2.387 0 4.31-1.857 4.31-4.376 0-2.52-1.956-4.376-4.31-4.376zm0 7.028c-1.293 0-2.42-1.094-2.42-2.652s1.127-2.652 2.42-2.652 2.42 1.06 2.42 2.652c0 1.558-1.127 2.652-2.42 2.652zm9.348-7.028c-2.387 0-4.31 1.823-4.31 4.376 0 2.52 1.923 4.376 4.31 4.376 2.354 0 4.31-1.857 4.31-4.376 0-2.52-1.923-4.376-4.31-4.376zm0 7.028c-1.293 0-2.42-1.094-2.42-2.652s1.128-2.652 2.42-2.652c1.293 0 2.42 1.06 2.42 2.652 0 1.558-1.094 2.652-2.42 2.652zm9.316-7.028c-2.155 0-4.111 1.89-4.111 4.343 0 2.42 1.956 4.31 4.11 4.31 1.028 0 1.824-.465 2.255-.995h.066v.63c0 1.657-.862 2.552-2.287 2.552-1.16 0-1.857-.829-2.155-1.525l-1.658.696c.465 1.161 1.724 2.553 3.813 2.553 2.22 0 4.077-1.326 4.077-4.509v-7.757h-1.79v.697h-.066c-.431-.53-1.227-.995-2.255-.995zm.165 6.962c-1.293 0-2.387-1.094-2.387-2.62 0-1.524 1.094-2.651 2.387-2.651s2.288 1.127 2.288 2.652c0 1.525-.995 2.618-2.288 2.618zm5.337-11.238h1.89V99.64h-1.89V86.843zm6.962 4.276c-2.254 0-4.144 1.757-4.144 4.376 0 2.453 1.857 4.376 4.343 4.376a4.334 4.334 0 003.646-1.923l-1.491-.995c-.498.73-1.194 1.194-2.155 1.194-.995 0-1.69-.431-2.122-1.326l5.868-2.42-.2-.497c-.364-.962-1.49-2.785-3.745-2.785zm-2.254 4.243c-.066-1.69 1.326-2.552 2.287-2.552.763 0 1.426.364 1.624.928l-3.911 1.624zm9.514 4.077l4.376-11.636h1.69L66.93 99.44h-1.657l-1.127-3.15h-4.873l-1.128 3.15h-1.657zm3.282-4.542h3.878l-1.89-5.238h-.066l-1.922 5.238zm8.685 3.58c-.73-.828-1.094-1.823-1.094-3.016 0-1.16.365-2.155 1.094-3.017.763-.829 1.624-1.227 2.685-1.227.597 0 1.127.133 1.591.365.498.265.862.564 1.128.995h.066l-.066-1.094v-3.68h1.491V99.44h-1.425v-1.094h-.066c-.266.397-.63.729-1.128.994-.497.265-1.027.365-1.59.365-1.062 0-1.957-.398-2.686-1.227zm4.707-.928c.498-.53.73-1.227.73-2.088 0-.83-.232-1.525-.73-2.056-.464-.53-1.06-.795-1.79-.795-.729 0-1.326.265-1.79.795-.497.53-.73 1.227-.73 2.056 0 .828.233 1.525.73 2.055.497.53 1.094.796 1.79.796a2.144 2.144 0 001.79-.763zm9.084 1.425c-.597.464-1.36.73-2.288.73-.795 0-1.492-.2-2.121-.63-.597-.431-1.028-.962-1.293-1.658l1.326-.563c.199.464.464.862.862 1.127.364.265.795.398 1.226.398.464 0 .862-.1 1.194-.299.331-.199.464-.464.464-.73 0-.496-.398-.894-1.16-1.126l-1.36-.332c-1.558-.397-2.32-1.127-2.32-2.254 0-.73.298-1.293.895-1.757.596-.43 1.359-.663 2.254-.663.696 0 1.326.166 1.923.497a2.79 2.79 0 011.193 1.36l-1.326.563a1.873 1.873 0 00-.73-.796 2.24 2.24 0 00-1.16-.298c-.397 0-.729.1-1.06.299-.299.198-.464.43-.464.729 0 .464.43.795 1.293.961l1.193.299c1.591.397 2.354 1.193 2.354 2.386.033.697-.299 1.293-.895 1.757z" fill="#757575"/></svg>