<svg width="168" height="27" fill="none" xmlns="http://www.w3.org/2000/svg"><path d="M167.143 16.29l-10.068-9.944-2.848 2.936 7.028 7.008-7.028 7.103 2.848 2.936 10.068-10.039z" fill="#DC6655"/><path d="M7.123 26.044c-1.995 0-3.704-.378-4.749-1.23C.664 23.581 0 21.971 0 19.51V1.136h4.274V6.82h6.173v4.167H4.274v7.766c0 1.515.285 2.273 1.044 2.746.475.285 1.33.474 2.66.474.854 0 2.469-.095 2.469-.095v3.883s-1.52.284-3.324.284zm116.812-3.883c-1.9 2.747-4.654 4.167-8.358 4.167-3.038 0-5.603-.947-7.502-2.84-1.9-1.895-2.849-4.262-2.849-7.104 0-2.841.949-5.209 2.849-7.103 1.899-1.894 4.274-2.841 7.218-2.841 2.754 0 5.033.947 6.837 2.936 1.805 1.894 2.659 4.357 2.659 7.103 0 1.042-.189 1.8-.189 1.8h-14.815c.284 1.325.949 2.272 1.994 3.03 1.044.758 2.374 1.136 3.894 1.136 2.089 0 3.703-.757 4.748-2.273l3.514 1.99zm-14.15-7.576h10.636c-.285-1.42-.855-2.463-1.804-3.22-.95-.758-2.09-1.137-3.419-1.137-1.425 0-2.659.38-3.61 1.232-.854.852-1.519 1.894-1.803 3.125zM74.266 22.16c-1.9 2.747-4.654 4.167-8.357 4.167-3.04 0-5.604-.947-7.503-2.84-1.9-1.895-2.849-4.262-2.849-7.104 0-2.841.95-5.209 2.85-7.103 1.899-1.894 4.273-2.841 7.217-2.841 2.754 0 5.033.947 6.838 2.936 1.804 1.894 2.659 4.357 2.659 7.103 0 1.042-.19 1.8-.19 1.8H60.116c.285 1.325.95 2.272 1.994 3.03 1.045.758 2.374 1.136 3.894 1.136 2.089 0 3.703-.757 4.748-2.273l3.514 1.99zm-14.15-7.576h10.636c-.285-1.42-.855-2.463-1.804-3.22-.95-.758-2.09-1.137-3.42-1.137-1.424 0-2.658.38-3.608 1.232-.95.852-1.52 1.894-1.804 3.125zM19.944 2.557A2.55 2.55 0 0017.379 0a2.55 2.55 0 00-2.564 2.557 2.55 2.55 0 002.564 2.557 2.55 2.55 0 002.565-2.557zm78.824 23.298l4.939-18.941h-4.37L96.3 20.267h-.285L92.5 6.914h-4.463l-3.61 13.353h-.284l-3.04-13.353h-4.368l4.939 18.941h5.033l3.419-13.354h.285l3.419 13.354h4.938zm-46.44 0V14.111c0-2.367-.665-4.262-1.994-5.587-1.33-1.421-3.04-2.084-5.224-2.084-2.279 0-4.463 1.231-5.603 3.22h-.285c-.95-1.989-2.944-3.22-5.223-3.22-2.184 0-4.084 1.042-5.128 2.747h-.19V6.914h-4.369v18.941h4.369V15.248c0-1.515.38-2.747 1.234-3.6.76-.757 1.71-1.23 2.85-1.23 1.044 0 1.899.379 2.469 1.042.57.662.854 1.704.854 2.935v11.46h4.369V15.248c0-1.515.38-2.747 1.14-3.6.664-.757 1.709-1.136 2.849-1.136 1.044 0 1.899.38 2.564 1.042.665.663.95 1.705.95 2.936v11.46h4.368v-.095zm-32.764 0V6.914h-4.369v18.941h4.369zm126.214-2.462c1.805-1.895 2.754-4.262 2.754-7.103 0-2.747-.949-5.21-2.754-7.103-1.805-1.895-4.084-2.842-6.553-2.842-2.47 0-4.938 1.137-6.458 2.842h-.285v-8.05h-4.369V25.76h4.369v-2.367h.285c1.52 1.799 4.084 2.935 6.553 2.935 2.564 0 4.653-1.041 6.458-2.935zm-3.229-11.27c1.14 1.136 1.615 2.462 1.615 4.167 0 1.704-.57 3.03-1.615 4.167-1.14 1.136-2.47 1.61-4.179 1.61s-3.039-.569-4.178-1.61c-1.14-1.137-1.615-2.463-1.615-4.167 0-1.705.57-3.031 1.615-4.167 1.139-1.137 2.469-1.61 4.178-1.61s3.039.568 4.179 1.61z" fill="#4D3B3B"/></svg>